<svg id="outline" height="512" viewBox="0 0 512 512" width="512" xmlns="http://www.w3.org/2000/svg"><path d="m488 16h-464a8.00008 8.00008 0 0 0 -8 8v320a8.00008 8.00008 0 0 0 8 8h192v96h-80a8.00008 8.00008 0 0 0 -8 8v16a7.99943 7.99943 0 0 0 3.5625 6.65625l24 16a7.99836 7.99836 0 0 0 4.4375 1.34375h192a7.99836 7.99836 0 0 0 4.4375-1.34375l24-16a7.99943 7.99943 0 0 0 3.5625-6.65625v-16a8.00008 8.00008 0 0 0 -8-8h-80v-96h192a8.00008 8.00008 0 0 0 8-8v-320a8.00008 8.00008 0 0 0 -8-8zm-120 451.71875-18.42188 12.28125h-187.15624l-18.42188-12.28125v-3.71875h224zm-88-19.71875h-48v-96h16v16a8 8 0 0 0 16 0v-16h16zm200-112h-448v-304h448z"/><path d="m56 320h400a8.00008 8.00008 0 0 0 8-8v-256a8.00008 8.00008 0 0 0 -8-8h-400a8.00008 8.00008 0 0 0 -8 8v256a8.00008 8.00008 0 0 0 8 8zm8-224h32v208h-32zm328 72h56v64h-56zm0-16v-56h56v56zm-16 152h-24v-208h24zm-264-112h18.74512a100.59072 100.59072 0 0 1 71.59765 29.65674 116.48774 116.48774 0 0 0 82.91211 34.34326h50.74512v48h-224zm224 48h-50.74512a100.53261 100.53261 0 0 1 -56.644-17.29688l18.58545-18.58544a95.37084 95.37084 0 0 1 67.88179-28.11768h20.92188zm0-80h-20.92188a111.26746 111.26746 0 0 0 -79.19628 32.8042l-19.83984 19.8398c-.80395-.75421-1.60156-1.51758-2.38476-2.30078a116.48774 116.48774 0 0 0 -82.91212-34.34322h-18.74512v-80h224zm56 144v-56h56v56zm56-240v16h-384v-16z"/><path d="m72 112h16v16h-16z"/><path d="m72 144h16v16h-16z"/><path d="m72 176h16v16h-16z"/><path d="m72 208h16v16h-16z"/><path d="m72 240h16v16h-16z"/><path d="m72 272h16v16h-16z"/></svg>