<svg id="ep5i7cbb4m4l1" xmlns="http://www.w3.org/2000/svg" xmlns:xlink="http://www.w3.org/1999/xlink" viewBox="0 0 362 291" shape-rendering="geometricPrecision" text-rendering="geometricPrecision">
    <style>
        @keyframes ep5i7cbb4m4l2_to__to{0%{transform:translate(-360px,0)}6.666667%,93.333333%{transform:translate(0,0)}to{transform:translate(366.445523px,-8.188727px)}}@keyframes ep5i7cbb4m4l3_c_o{0%,10%,90.666667%,to{opacity:0}10.666667%,90%{opacity:1}}@keyframes ep5i7cbb4m4l5_to__to{0%,13.333333%{transform:translate(.5px,92.919694px)}20%,80%{transform:translate(.5px,2.952096px)}86.666667%,to{transform:translate(-1.5px,93.825145px)}}@keyframes ep5i7cbb4m4l7_c_o{0%,10%,90.666667%,to{opacity:1}10.666667%,90%{opacity:0}}@keyframes ep5i7cbb4m4l9_c_o{0%,60%,80%,to{opacity:0}62%,78%{opacity:1}}@keyframes ep5i7cbb4m4l10_c_o{0%,40%,60%,to{opacity:0}42%,58%{opacity:1}}@keyframes ep5i7cbb4m4l11_c_o{0%,20%,40%,to{opacity:0}22%,38%{opacity:1}}@keyframes ep5i7cbb4m4l12_c_o{0%,21.333333%,80%,to{opacity:0}22.666667%,78%{opacity:1}}@keyframes ep5i7cbb4m4l17_to__to{0%,22.666667%{transform:translate(0,0)}38%{transform:translate(171.051px,.1868px)}39.333333%{transform:translate(15.5px,.1868px)}57.333333%{transform:translate(179.85216px,.1868px)}58.666667%{transform:translate(9.251945px,-1.798382px)}78%,to{transform:translate(175.237px,.1868px)}}@keyframes ep5i7cbb4m4l17_c_o{0%,21.333333%,38.666667%,58%,80%,to{opacity:0}22.666667%,38%,39.333333%,57.333333%,58.666667%,78%{opacity:1}}
    </style>
    <g transform="translate(-360,0)" style="animation:ep5i7cbb4m4l2_to__to 15000ms linear infinite normal forwards">
        <g id="ep5i7cbb4m4l2" transform="translate(0,0)">
            <path d="M177.871000,96.482872C179.196000,96.461666,180.690000,96.461631,182.015000,96.482765L347.304000,99.118974C349.865000,99.159817,350.913000,99.250181,350.360000,99.340194C349.807000,99.430160,347.864000,99.491653,345.239000,99.491719L14.768000,99.500002C12.143600,99.500067,10.198700,99.438684,9.642180,99.348755C9.085390,99.258780,10.128900,99.168347,12.689000,99.127360L177.871000,96.482872Z" opacity="0" fill="rgb(255,238,180)" stroke="rgb(0,0,0)" stroke-width="5" stroke-linejoin="round" style="animation:ep5i7cbb4m4l3_c_o 15000ms linear infinite normal forwards"/>
            <rect id="ep5i7cbb4m4l4" width="318" height="101" rx="0" ry="0" transform="matrix(1 0 0 1 22.50000000000000 90.50000000000000)" fill="rgb(253,223,120)" stroke="rgb(0,0,0)" stroke-width="5"/>
            <g transform="translate(0.500000,92.919694)" style="animation:ep5i7cbb4m4l5_to__to 15000ms linear infinite normal forwards">
                <rect id="ep5i7cbb4m4l5" width="252" height="155.168233" rx="5" ry="0" transform="translate(55,4.000490)" fill="rgb(255,255,255)" stroke="rgb(0,0,0)" stroke-width="6"/>
            </g>
            <path id="ep5i7cbb4m4l6" d="M2,108.219000C2,94.654200,16.434000,85.963800,28.422000,92.310400L168.334000,166.382000C174.695000,169.749000,182.302000,169.792000,188.700000,166.497000L333.759000,91.793900C345.738000,85.624600,360,94.321800,360,107.797000L360,244C360,253.942000,351.941000,262,342,262L20,262C10.058900,262,2,253.942000,2,244L2,108.219000Z" fill="rgb(255,238,180)" stroke="rgb(0,0,0)" stroke-width="4"/>
            <path d="M182.129000,175.991000C180.804000,176.669000,179.310000,176.670000,177.985000,175.994000L12.695600,91.686100C10.134600,90.379800,9.087130,87.490000,9.640320,84.611300C10.193200,81.734100,12.136000,79.767400,14.760800,79.765300L345.232000,79.500500C347.856000,79.498400,349.801000,81.461400,350.358000,84.337400C350.915000,87.215000,349.871000,90.107100,347.311000,91.417800L182.129000,175.991000Z" transform="matrix(1 0 0 1 0.89486558999997 4.99962583999985)" fill="rgb(255,238,180)" stroke="rgb(0,0,0)" stroke-width="5" stroke-linejoin="round" style="animation:ep5i7cbb4m4l7_c_o 15000ms linear infinite normal forwards"/>
            <g id="ep5i7cbb4m4l8">
                <path d="M141.977000,27.908000C142.153000,27.908000,142.309000,27.976000,142.445000,28.112000L143.717000,29.492000C143.013000,30.364000,142.145000,31.032000,141.113000,31.496000C140.089000,31.960000,138.857000,32.192000,137.417000,32.192000C136.129000,32.192000,134.969000,31.972000,133.937000,31.532000C132.913000,31.092000,132.037000,30.480000,131.309000,29.696000C130.581000,28.912000,130.021000,27.976000,129.629000,26.888000C129.245000,25.800000,129.053000,24.612000,129.053000,23.324000C129.053000,22.020000,129.261000,20.828000,129.677000,19.748000C130.093000,18.660000,130.677000,17.724000,131.429000,16.940000C132.189000,16.156000,133.093000,15.548000,134.141000,15.116000C135.189000,14.676000,136.349000,14.456000,137.621000,14.456000C138.885000,14.456000,140.005000,14.664000,140.981000,15.080000C141.965000,15.496000,142.801000,16.040000,143.489000,16.712000L142.409000,18.212000C142.345000,18.308000,142.261000,18.392000,142.157000,18.464000C142.061000,18.536000,141.925000,18.572000,141.749000,18.572000C141.629000,18.572000,141.505000,18.540000,141.377000,18.476000C141.249000,18.404000,141.109000,18.320000,140.957000,18.224000C140.805000,18.120000,140.629000,18.008000,140.429000,17.888000C140.229000,17.768000,139.997000,17.660000,139.733000,17.564000C139.469000,17.460000,139.161000,17.376000,138.809000,17.312000C138.465000,17.240000,138.065000,17.204000,137.609000,17.204000C136.833000,17.204000,136.121000,17.344000,135.473000,17.624000C134.833000,17.896000,134.281000,18.296000,133.817000,18.824000C133.353000,19.344000,132.993000,19.984000,132.737000,20.744000C132.481000,21.496000,132.353000,22.356000,132.353000,23.324000C132.353000,24.300000,132.489000,25.168000,132.761000,25.928000C133.041000,26.688000,133.417000,27.328000,133.889000,27.848000C134.361000,28.368000,134.917000,28.768000,135.557000,29.048000C136.197000,29.320000,136.885000,29.456000,137.621000,29.456000C138.061000,29.456000,138.457000,29.432000,138.809000,29.384000C139.169000,29.336000,139.497000,29.260000,139.793000,29.156000C140.097000,29.052000,140.381000,28.920000,140.645000,28.760000C140.917000,28.592000,141.185000,28.388000,141.449000,28.148000C141.529000,28.076000,141.613000,28.020000,141.701000,27.980000C141.789000,27.932000,141.881000,27.908000,141.977000,27.908000ZM150.650000,19.496000C151.562000,19.496000,152.390000,19.644000,153.134000,19.940000C153.886000,20.236000,154.526000,20.656000,155.054000,21.200000C155.590000,21.744000,156.002000,22.408000,156.290000,23.192000C156.578000,23.976000,156.722000,24.852000,156.722000,25.820000C156.722000,26.796000,156.578000,27.676000,156.290000,28.460000C156.002000,29.244000,155.590000,29.912000,155.054000,30.464000C154.526000,31.016000,153.886000,31.440000,153.134000,31.736000C152.390000,32.032000,151.562000,32.180000,150.650000,32.180000C149.730000,32.180000,148.894000,32.032000,148.142000,31.736000C147.390000,31.440000,146.746000,31.016000,146.210000,30.464000C145.682000,29.912000,145.270000,29.244000,144.974000,28.460000C144.686000,27.676000,144.542000,26.796000,144.542000,25.820000C144.542000,24.852000,144.686000,23.976000,144.974000,23.192000C145.270000,22.408000,145.682000,21.744000,146.210000,21.200000C146.746000,20.656000,147.390000,20.236000,148.142000,19.940000C148.894000,19.644000,149.730000,19.496000,150.650000,19.496000ZM150.650000,29.900000C151.674000,29.900000,152.430000,29.556000,152.918000,28.868000C153.414000,28.180000,153.662000,27.172000,153.662000,25.844000C153.662000,24.516000,153.414000,23.504000,152.918000,22.808000C152.430000,22.112000,151.674000,21.764000,150.650000,21.764000C149.610000,21.764000,148.838000,22.116000,148.334000,22.820000C147.838000,23.516000,147.590000,24.524000,147.590000,25.844000C147.590000,27.164000,147.838000,28.172000,148.334000,28.868000C148.838000,29.556000,149.610000,29.900000,150.650000,29.900000ZM158.984000,32L158.984000,19.688000L160.796000,19.688000C161.180000,19.688000,161.432000,19.868000,161.552000,20.228000L161.744000,21.140000C161.960000,20.900000,162.184000,20.680000,162.416000,20.480000C162.656000,20.280000,162.908000,20.108000,163.172000,19.964000C163.444000,19.820000,163.732000,19.708000,164.036000,19.628000C164.348000,19.540000,164.688000,19.496000,165.056000,19.496000C165.832000,19.496000,166.468000,19.708000,166.964000,20.132000C167.468000,20.548000,167.844000,21.104000,168.092000,21.800000C168.284000,21.392000,168.524000,21.044000,168.812000,20.756000C169.100000,20.460000,169.416000,20.220000,169.760000,20.036000C170.104000,19.852000,170.468000,19.716000,170.852000,19.628000C171.244000,19.540000,171.636000,19.496000,172.028000,19.496000C172.708000,19.496000,173.312000,19.600000,173.840000,19.808000C174.368000,20.016000,174.812000,20.320000,175.172000,20.720000C175.532000,21.120000,175.804000,21.608000,175.988000,22.184000C176.180000,22.760000,176.276000,23.420000,176.276000,24.164000L176.276000,32L173.312000,32L173.312000,24.164000C173.312000,23.380000,173.140000,22.792000,172.796000,22.400000C172.452000,22,171.948000,21.800000,171.284000,21.800000C170.980000,21.800000,170.696000,21.852000,170.432000,21.956000C170.176000,22.060000,169.948000,22.212000,169.748000,22.412000C169.556000,22.604000,169.404000,22.848000,169.292000,23.144000C169.180000,23.440000,169.124000,23.780000,169.124000,24.164000L169.124000,32L166.148000,32L166.148000,24.164000C166.148000,23.340000,165.980000,22.740000,165.644000,22.364000C165.316000,21.988000,164.832000,21.800000,164.192000,21.800000C163.760000,21.800000,163.356000,21.908000,162.980000,22.124000C162.612000,22.332000,162.268000,22.620000,161.948000,22.988000L161.948000,32L158.984000,32ZM179.093000,32L179.093000,19.688000L180.905000,19.688000C181.289000,19.688000,181.541000,19.868000,181.661000,20.228000L181.853000,21.140000C182.069000,20.900000,182.293000,20.680000,182.525000,20.480000C182.765000,20.280000,183.017000,20.108000,183.281000,19.964000C183.553000,19.820000,183.841000,19.708000,184.145000,19.628000C184.457000,19.540000,184.797000,19.496000,185.165000,19.496000C185.941000,19.496000,186.577000,19.708000,187.073000,20.132000C187.577000,20.548000,187.953000,21.104000,188.201000,21.800000C188.393000,21.392000,188.633000,21.044000,188.921000,20.756000C189.209000,20.460000,189.525000,20.220000,189.869000,20.036000C190.213000,19.852000,190.577000,19.716000,190.961000,19.628000C191.353000,19.540000,191.745000,19.496000,192.137000,19.496000C192.817000,19.496000,193.421000,19.600000,193.949000,19.808000C194.477000,20.016000,194.921000,20.320000,195.281000,20.720000C195.641000,21.120000,195.913000,21.608000,196.097000,22.184000C196.289000,22.760000,196.385000,23.420000,196.385000,24.164000L196.385000,32L193.421000,32L193.421000,24.164000C193.421000,23.380000,193.249000,22.792000,192.905000,22.400000C192.561000,22,192.057000,21.800000,191.393000,21.800000C191.089000,21.800000,190.805000,21.852000,190.541000,21.956000C190.285000,22.060000,190.057000,22.212000,189.857000,22.412000C189.665000,22.604000,189.513000,22.848000,189.401000,23.144000C189.289000,23.440000,189.233000,23.780000,189.233000,24.164000L189.233000,32L186.257000,32L186.257000,24.164000C186.257000,23.340000,186.089000,22.740000,185.753000,22.364000C185.425000,21.988000,184.941000,21.800000,184.301000,21.800000C183.869000,21.800000,183.465000,21.908000,183.089000,22.124000C182.721000,22.332000,182.377000,22.620000,182.057000,22.988000L182.057000,32L179.093000,32ZM207.134000,24.428000C207.134000,24.044000,207.078000,23.684000,206.966000,23.348000C206.862000,23.004000,206.702000,22.704000,206.486000,22.448000C206.270000,22.192000,205.994000,21.992000,205.658000,21.848000C205.330000,21.696000,204.946000,21.620000,204.506000,21.620000C203.650000,21.620000,202.974000,21.864000,202.478000,22.352000C201.990000,22.840000,201.678000,23.532000,201.542000,24.428000L207.134000,24.428000ZM201.482000,26.216000C201.530000,26.848000,201.642000,27.396000,201.818000,27.860000C201.994000,28.316000,202.226000,28.696000,202.514000,29C202.802000,29.296000,203.142000,29.520000,203.534000,29.672000C203.934000,29.816000,204.374000,29.888000,204.854000,29.888000C205.334000,29.888000,205.746000,29.832000,206.090000,29.720000C206.442000,29.608000,206.746000,29.484000,207.002000,29.348000C207.266000,29.212000,207.494000,29.088000,207.686000,28.976000C207.886000,28.864000,208.078000,28.808000,208.262000,28.808000C208.510000,28.808000,208.694000,28.900000,208.814000,29.084000L209.666000,30.164000C209.338000,30.548000,208.970000,30.872000,208.562000,31.136000C208.154000,31.392000,207.726000,31.600000,207.278000,31.760000C206.838000,31.912000,206.386000,32.020000,205.922000,32.084000C205.466000,32.148000,205.022000,32.180000,204.590000,32.180000C203.734000,32.180000,202.938000,32.040000,202.202000,31.760000C201.466000,31.472000,200.826000,31.052000,200.282000,30.500000C199.738000,29.940000,199.310000,29.252000,198.998000,28.436000C198.686000,27.612000,198.530000,26.660000,198.530000,25.580000C198.530000,24.740000,198.666000,23.952000,198.938000,23.216000C199.210000,22.472000,199.598000,21.828000,200.102000,21.284000C200.614000,20.732000,201.234000,20.296000,201.962000,19.976000C202.698000,19.656000,203.526000,19.496000,204.446000,19.496000C205.222000,19.496000,205.938000,19.620000,206.594000,19.868000C207.250000,20.116000,207.814000,20.480000,208.286000,20.960000C208.758000,21.432000,209.126000,22.016000,209.390000,22.712000C209.662000,23.400000,209.798000,24.188000,209.798000,25.076000C209.798000,25.524000,209.750000,25.828000,209.654000,25.988000C209.558000,26.140000,209.374000,26.216000,209.102000,26.216000L201.482000,26.216000ZM214.795000,21.200000C215.043000,20.952000,215.303000,20.724000,215.575000,20.516000C215.855000,20.300000,216.147000,20.120000,216.451000,19.976000C216.763000,19.824000,217.095000,19.708000,217.447000,19.628000C217.799000,19.540000,218.183000,19.496000,218.599000,19.496000C219.271000,19.496000,219.867000,19.612000,220.387000,19.844000C220.907000,20.068000,221.339000,20.388000,221.683000,20.804000C222.035000,21.212000,222.299000,21.704000,222.475000,22.280000C222.659000,22.848000,222.751000,23.476000,222.751000,24.164000L222.751000,32L219.787000,32L219.787000,24.164000C219.787000,23.412000,219.615000,22.832000,219.271000,22.424000C218.927000,22.008000,218.403000,21.800000,217.699000,21.800000C217.187000,21.800000,216.707000,21.916000,216.259000,22.148000C215.811000,22.380000,215.387000,22.696000,214.987000,23.096000L214.987000,32L212.023000,32L212.023000,19.688000L213.835000,19.688000C214.219000,19.688000,214.471000,19.868000,214.591000,20.228000L214.795000,21.200000ZM229.509000,32.192000C228.437000,32.192000,227.613000,31.892000,227.037000,31.292000C226.469000,30.684000,226.185000,29.848000,226.185000,28.784000L226.185000,21.908000L224.925000,21.908000C224.765000,21.908000,224.629000,21.856000,224.517000,21.752000C224.405000,21.648000,224.349000,21.492000,224.349000,21.284000L224.349000,20.108000L226.329000,19.784000L226.953000,16.424000C226.993000,16.264000,227.069000,16.140000,227.181000,16.052000C227.293000,15.964000,227.437000,15.920000,227.613000,15.920000L229.149000,15.920000L229.149000,19.796000L232.437000,19.796000L232.437000,21.908000L229.149000,21.908000L229.149000,28.580000C229.149000,28.964000,229.241000,29.264000,229.425000,29.480000C229.617000,29.696000,229.877000,29.804000,230.205000,29.804000C230.389000,29.804000,230.541000,29.784000,230.661000,29.744000C230.789000,29.696000,230.897000,29.648000,230.985000,29.600000C231.081000,29.552000,231.165000,29.508000,231.237000,29.468000C231.309000,29.420000,231.381000,29.396000,231.453000,29.396000C231.541000,29.396000,231.613000,29.420000,231.669000,29.468000C231.725000,29.508000,231.785000,29.572000,231.849000,29.660000L232.737000,31.100000C232.305000,31.460000,231.809000,31.732000,231.249000,31.916000C230.689000,32.100000,230.109000,32.192000,229.509000,32.192000Z" opacity="0" fill="rgb(0,0,0)" stroke="none" stroke-width="1" style="animation:ep5i7cbb4m4l9_c_o 15000ms linear infinite normal forwards"/>
                <path d="M135.212000,24.324000C135.212000,25.276000,135.340000,26.132000,135.596000,26.892000C135.852000,27.644000,136.216000,28.284000,136.688000,28.812000C137.168000,29.332000,137.744000,29.732000,138.416000,30.012000C139.096000,30.292000,139.860000,30.432000,140.708000,30.432000C141.556000,30.432000,142.316000,30.292000,142.988000,30.012000C143.668000,29.732000,144.244000,29.332000,144.716000,28.812000C145.188000,28.284000,145.552000,27.644000,145.808000,26.892000C146.064000,26.132000,146.192000,25.276000,146.192000,24.324000C146.192000,23.372000,146.064000,22.520000,145.808000,21.768000C145.552000,21.008000,145.188000,20.364000,144.716000,19.836000C144.244000,19.308000,143.668000,18.904000,142.988000,18.624000C142.316000,18.344000,141.556000,18.204000,140.708000,18.204000C139.860000,18.204000,139.096000,18.344000,138.416000,18.624000C137.744000,18.904000,137.168000,19.308000,136.688000,19.836000C136.216000,20.364000,135.852000,21.008000,135.596000,21.768000C135.340000,22.520000,135.212000,23.372000,135.212000,24.324000ZM150.392000,36.396000L147.728000,36.396000C147.344000,36.396000,146.996000,36.344000,146.684000,36.240000C146.380000,36.136000,146.100000,35.944000,145.844000,35.664000L143.300000,32.856000C142.892000,32.968000,142.472000,33.052000,142.040000,33.108000C141.616000,33.164000,141.172000,33.192000,140.708000,33.192000C139.396000,33.192000,138.200000,32.972000,137.120000,32.532000C136.040000,32.084000,135.112000,31.464000,134.336000,30.672000C133.568000,29.880000,132.972000,28.944000,132.548000,27.864000C132.124000,26.776000,131.912000,25.596000,131.912000,24.324000C131.912000,23.052000,132.124000,21.876000,132.548000,20.796000C132.972000,19.708000,133.568000,18.768000,134.336000,17.976000C135.112000,17.184000,136.040000,16.568000,137.120000,16.128000C138.200000,15.680000,139.396000,15.456000,140.708000,15.456000C141.588000,15.456000,142.416000,15.560000,143.192000,15.768000C143.968000,15.968000,144.680000,16.256000,145.328000,16.632000C145.976000,17,146.556000,17.452000,147.068000,17.988000C147.588000,18.516000,148.028000,19.108000,148.388000,19.764000C148.748000,20.420000,149.020000,21.132000,149.204000,21.900000C149.396000,22.668000,149.492000,23.476000,149.492000,24.324000C149.492000,25.100000,149.412000,25.844000,149.252000,26.556000C149.092000,27.260000,148.860000,27.920000,148.556000,28.536000C148.260000,29.152000,147.896000,29.720000,147.464000,30.240000C147.032000,30.752000,146.540000,31.204000,145.988000,31.596000L150.392000,36.396000ZM162.291000,20.688000L162.291000,33L160.479000,33C160.087000,33,159.839000,32.820000,159.735000,32.460000L159.531000,31.476000C159.027000,31.988000,158.471000,32.404000,157.863000,32.724000C157.255000,33.036000,156.539000,33.192000,155.715000,33.192000C155.043000,33.192000,154.447000,33.080000,153.927000,32.856000C153.415000,32.624000,152.983000,32.300000,152.631000,31.884000C152.279000,31.468000,152.011000,30.976000,151.827000,30.408000C151.651000,29.832000,151.563000,29.200000,151.563000,28.512000L151.563000,20.688000L154.527000,20.688000L154.527000,28.512000C154.527000,29.264000,154.699000,29.848000,155.043000,30.264000C155.395000,30.672000,155.919000,30.876000,156.615000,30.876000C157.127000,30.876000,157.607000,30.764000,158.055000,30.540000C158.503000,30.308000,158.927000,29.992000,159.327000,29.592000L159.327000,20.688000L162.291000,20.688000ZM173.162000,25.428000C173.162000,25.044000,173.106000,24.684000,172.994000,24.348000C172.890000,24.004000,172.730000,23.704000,172.514000,23.448000C172.298000,23.192000,172.022000,22.992000,171.686000,22.848000C171.358000,22.696000,170.974000,22.620000,170.534000,22.620000C169.678000,22.620000,169.002000,22.864000,168.506000,23.352000C168.018000,23.840000,167.706000,24.532000,167.570000,25.428000L173.162000,25.428000ZM167.510000,27.216000C167.558000,27.848000,167.670000,28.396000,167.846000,28.860000C168.022000,29.316000,168.254000,29.696000,168.542000,30C168.830000,30.296000,169.170000,30.520000,169.562000,30.672000C169.962000,30.816000,170.402000,30.888000,170.882000,30.888000C171.362000,30.888000,171.774000,30.832000,172.118000,30.720000C172.470000,30.608000,172.774000,30.484000,173.030000,30.348000C173.294000,30.212000,173.522000,30.088000,173.714000,29.976000C173.914000,29.864000,174.106000,29.808000,174.290000,29.808000C174.538000,29.808000,174.722000,29.900000,174.842000,30.084000L175.694000,31.164000C175.366000,31.548000,174.998000,31.872000,174.590000,32.136000C174.182000,32.392000,173.754000,32.600000,173.306000,32.760000C172.866000,32.912000,172.414000,33.020000,171.950000,33.084000C171.494000,33.148000,171.050000,33.180000,170.618000,33.180000C169.762000,33.180000,168.966000,33.040000,168.230000,32.760000C167.494000,32.472000,166.854000,32.052000,166.310000,31.500000C165.766000,30.940000,165.338000,30.252000,165.026000,29.436000C164.714000,28.612000,164.558000,27.660000,164.558000,26.580000C164.558000,25.740000,164.694000,24.952000,164.966000,24.216000C165.238000,23.472000,165.626000,22.828000,166.130000,22.284000C166.642000,21.732000,167.262000,21.296000,167.990000,20.976000C168.726000,20.656000,169.554000,20.496000,170.474000,20.496000C171.250000,20.496000,171.966000,20.620000,172.622000,20.868000C173.278000,21.116000,173.842000,21.480000,174.314000,21.960000C174.786000,22.432000,175.154000,23.016000,175.418000,23.712000C175.690000,24.400000,175.826000,25.188000,175.826000,26.076000C175.826000,26.524000,175.778000,26.828000,175.682000,26.988000C175.586000,27.140000,175.402000,27.216000,175.130000,27.216000L167.510000,27.216000ZM185.562000,23.088000C185.482000,23.216000,185.398000,23.308000,185.310000,23.364000C185.222000,23.412000,185.110000,23.436000,184.974000,23.436000C184.830000,23.436000,184.674000,23.396000,184.506000,23.316000C184.346000,23.236000,184.158000,23.148000,183.942000,23.052000C183.726000,22.948000,183.478000,22.856000,183.198000,22.776000C182.926000,22.696000,182.602000,22.656000,182.226000,22.656000C181.642000,22.656000,181.182000,22.780000,180.846000,23.028000C180.518000,23.276000,180.354000,23.600000,180.354000,24C180.354000,24.264000,180.438000,24.488000,180.606000,24.672000C180.782000,24.848000,181.010000,25.004000,181.290000,25.140000C181.578000,25.276000,181.902000,25.400000,182.262000,25.512000C182.622000,25.616000,182.986000,25.732000,183.354000,25.860000C183.730000,25.988000,184.098000,26.136000,184.458000,26.304000C184.818000,26.464000,185.138000,26.672000,185.418000,26.928000C185.706000,27.176000,185.934000,27.476000,186.102000,27.828000C186.278000,28.180000,186.366000,28.604000,186.366000,29.100000C186.366000,29.692000,186.258000,30.240000,186.042000,30.744000C185.834000,31.240000,185.522000,31.672000,185.106000,32.040000C184.690000,32.400000,184.174000,32.684000,183.558000,32.892000C182.950000,33.092000,182.246000,33.192000,181.446000,33.192000C181.022000,33.192000,180.606000,33.152000,180.198000,33.072000C179.798000,33,179.410000,32.896000,179.034000,32.760000C178.666000,32.624000,178.322000,32.464000,178.002000,32.280000C177.690000,32.096000,177.414000,31.896000,177.174000,31.680000L177.858000,30.552000C177.946000,30.416000,178.050000,30.312000,178.170000,30.240000C178.290000,30.168000,178.442000,30.132000,178.626000,30.132000C178.810000,30.132000,178.982000,30.184000,179.142000,30.288000C179.310000,30.392000,179.502000,30.504000,179.718000,30.624000C179.934000,30.744000,180.186000,30.856000,180.474000,30.960000C180.770000,31.064000,181.142000,31.116000,181.590000,31.116000C181.942000,31.116000,182.242000,31.076000,182.490000,30.996000C182.746000,30.908000,182.954000,30.796000,183.114000,30.660000C183.282000,30.524000,183.402000,30.368000,183.474000,30.192000C183.554000,30.008000,183.594000,29.820000,183.594000,29.628000C183.594000,29.340000,183.506000,29.104000,183.330000,28.920000C183.162000,28.736000,182.934000,28.576000,182.646000,28.440000C182.366000,28.304000,182.042000,28.184000,181.674000,28.080000C181.314000,27.968000,180.942000,27.848000,180.558000,27.720000C180.182000,27.592000,179.810000,27.444000,179.442000,27.276000C179.082000,27.100000,178.758000,26.880000,178.470000,26.616000C178.190000,26.352000,177.962000,26.028000,177.786000,25.644000C177.618000,25.260000,177.534000,24.796000,177.534000,24.252000C177.534000,23.748000,177.634000,23.268000,177.834000,22.812000C178.034000,22.356000,178.326000,21.960000,178.710000,21.624000C179.102000,21.280000,179.586000,21.008000,180.162000,20.808000C180.746000,20.600000,181.418000,20.496000,182.178000,20.496000C183.026000,20.496000,183.798000,20.636000,184.494000,20.916000C185.190000,21.196000,185.770000,21.564000,186.234000,22.020000L185.562000,23.088000ZM201.017000,33L198.053000,33L198.053000,22.908000L192.341000,22.908000L192.341000,29.580000C192.341000,29.964000,192.433000,30.264000,192.617000,30.480000C192.809000,30.696000,193.069000,30.804000,193.397000,30.804000C193.581000,30.804000,193.733000,30.784000,193.853000,30.744000C193.981000,30.696000,194.089000,30.648000,194.177000,30.600000C194.273000,30.552000,194.357000,30.508000,194.429000,30.468000C194.501000,30.420000,194.573000,30.396000,194.645000,30.396000C194.733000,30.396000,194.805000,30.420000,194.861000,30.468000C194.917000,30.508000,194.977000,30.572000,195.041000,30.660000L195.929000,32.100000C195.497000,32.460000,195.001000,32.732000,194.441000,32.916000C193.881000,33.100000,193.301000,33.192000,192.701000,33.192000C191.629000,33.192000,190.805000,32.892000,190.229000,32.292000C189.661000,31.684000,189.377000,30.848000,189.377000,29.784000L189.377000,22.908000L188.117000,22.908000C187.957000,22.908000,187.821000,22.856000,187.709000,22.752000C187.597000,22.648000,187.541000,22.492000,187.541000,22.284000L187.541000,21.108000L189.521000,20.772000L190.145000,17.424000C190.185000,17.264000,190.261000,17.140000,190.373000,17.052000C190.485000,16.964000,190.629000,16.920000,190.805000,16.920000L192.341000,16.920000L192.341000,20.796000L201.017000,20.796000L201.017000,33ZM201.533000,17.052000C201.533000,17.308000,201.481000,17.552000,201.377000,17.784000C201.273000,18.008000,201.133000,18.204000,200.957000,18.372000C200.789000,18.540000,200.585000,18.676000,200.345000,18.780000C200.113000,18.876000,199.865000,18.924000,199.601000,18.924000C199.345000,18.924000,199.105000,18.876000,198.881000,18.780000C198.657000,18.676000,198.461000,18.540000,198.293000,18.372000C198.125000,18.204000,197.989000,18.008000,197.885000,17.784000C197.789000,17.552000,197.741000,17.308000,197.741000,17.052000C197.741000,16.788000,197.789000,16.544000,197.885000,16.320000C197.989000,16.088000,198.125000,15.888000,198.293000,15.720000C198.461000,15.544000,198.657000,15.408000,198.881000,15.312000C199.105000,15.208000,199.345000,15.156000,199.601000,15.156000C199.865000,15.156000,200.113000,15.208000,200.345000,15.312000C200.585000,15.408000,200.789000,15.544000,200.957000,15.720000C201.133000,15.888000,201.273000,16.088000,201.377000,16.320000C201.481000,16.544000,201.533000,16.788000,201.533000,17.052000ZM209.490000,20.496000C210.402000,20.496000,211.230000,20.644000,211.974000,20.940000C212.726000,21.236000,213.366000,21.656000,213.894000,22.200000C214.430000,22.744000,214.842000,23.408000,215.130000,24.192000C215.418000,24.976000,215.562000,25.852000,215.562000,26.820000C215.562000,27.796000,215.418000,28.676000,215.130000,29.460000C214.842000,30.244000,214.430000,30.912000,213.894000,31.464000C213.366000,32.016000,212.726000,32.440000,211.974000,32.736000C211.230000,33.032000,210.402000,33.180000,209.490000,33.180000C208.570000,33.180000,207.734000,33.032000,206.982000,32.736000C206.230000,32.440000,205.586000,32.016000,205.050000,31.464000C204.522000,30.912000,204.110000,30.244000,203.814000,29.460000C203.526000,28.676000,203.382000,27.796000,203.382000,26.820000C203.382000,25.852000,203.526000,24.976000,203.814000,24.192000C204.110000,23.408000,204.522000,22.744000,205.050000,22.200000C205.586000,21.656000,206.230000,21.236000,206.982000,20.940000C207.734000,20.644000,208.570000,20.496000,209.490000,20.496000ZM209.490000,30.900000C210.514000,30.900000,211.270000,30.556000,211.758000,29.868000C212.254000,29.180000,212.502000,28.172000,212.502000,26.844000C212.502000,25.516000,212.254000,24.504000,211.758000,23.808000C211.270000,23.112000,210.514000,22.764000,209.490000,22.764000C208.450000,22.764000,207.678000,23.116000,207.174000,23.820000C206.678000,24.516000,206.430000,25.524000,206.430000,26.844000C206.430000,28.164000,206.678000,29.172000,207.174000,29.868000C207.678000,30.556000,208.450000,30.900000,209.490000,30.900000ZM220.595000,22.200000C220.843000,21.952000,221.103000,21.724000,221.375000,21.516000C221.655000,21.300000,221.947000,21.120000,222.251000,20.976000C222.563000,20.824000,222.895000,20.708000,223.247000,20.628000C223.599000,20.540000,223.983000,20.496000,224.399000,20.496000C225.071000,20.496000,225.667000,20.612000,226.187000,20.844000C226.707000,21.068000,227.139000,21.388000,227.483000,21.804000C227.835000,22.212000,228.099000,22.704000,228.275000,23.280000C228.459000,23.848000,228.551000,24.476000,228.551000,25.164000L228.551000,33L225.587000,33L225.587000,25.164000C225.587000,24.412000,225.415000,23.832000,225.071000,23.424000C224.727000,23.008000,224.203000,22.800000,223.499000,22.800000C222.987000,22.800000,222.507000,22.916000,222.059000,23.148000C221.611000,23.380000,221.187000,23.696000,220.787000,24.096000L220.787000,33L217.823000,33L217.823000,20.688000L219.635000,20.688000C220.019000,20.688000,220.271000,20.868000,220.391000,21.228000L220.595000,22.200000Z" opacity="0" fill="rgb(0,0,0)" stroke="none" stroke-width="1" style="animation:ep5i7cbb4m4l10_c_o 15000ms linear infinite normal forwards"/>
                <path d="M149.572000,24.372000C150.164000,24.372000,150.680000,24.300000,151.120000,24.156000C151.560000,24.004000,151.924000,23.792000,152.212000,23.520000C152.508000,23.240000,152.728000,22.904000,152.872000,22.512000C153.016000,22.112000,153.088000,21.668000,153.088000,21.180000C153.088000,20.716000,153.016000,20.296000,152.872000,19.920000C152.728000,19.544000,152.512000,19.224000,152.224000,18.960000C151.936000,18.696000,151.572000,18.496000,151.132000,18.360000C150.692000,18.216000,150.172000,18.144000,149.572000,18.144000L147.160000,18.144000L147.160000,24.372000L149.572000,24.372000ZM149.572000,15.648000C150.732000,15.648000,151.736000,15.784000,152.584000,16.056000C153.432000,16.328000,154.132000,16.708000,154.684000,17.196000C155.236000,17.684000,155.644000,18.268000,155.908000,18.948000C156.180000,19.628000,156.316000,20.372000,156.316000,21.180000C156.316000,22.020000,156.176000,22.792000,155.896000,23.496000C155.616000,24.192000,155.196000,24.792000,154.636000,25.296000C154.076000,25.800000,153.372000,26.192000,152.524000,26.472000C151.684000,26.752000,150.700000,26.892000,149.572000,26.892000L147.160000,26.892000L147.160000,33L143.932000,33L143.932000,15.648000L149.572000,15.648000ZM160.932000,22.824000C161.316000,22.088000,161.772000,21.512000,162.300000,21.096000C162.828000,20.672000,163.452000,20.460000,164.172000,20.460000C164.740000,20.460000,165.196000,20.584000,165.540000,20.832000L165.348000,23.052000C165.308000,23.196000,165.248000,23.300000,165.168000,23.364000C165.096000,23.420000,164.996000,23.448000,164.868000,23.448000C164.748000,23.448000,164.568000,23.428000,164.328000,23.388000C164.096000,23.348000,163.868000,23.328000,163.644000,23.328000C163.316000,23.328000,163.024000,23.376000,162.768000,23.472000C162.512000,23.568000,162.280000,23.708000,162.072000,23.892000C161.872000,24.068000,161.692000,24.284000,161.532000,24.540000C161.380000,24.796000,161.236000,25.088000,161.100000,25.416000L161.100000,33L158.136000,33L158.136000,20.688000L159.876000,20.688000C160.180000,20.688000,160.392000,20.744000,160.512000,20.856000C160.632000,20.960000,160.712000,21.152000,160.752000,21.432000L160.932000,22.824000ZM172.185000,20.496000C173.097000,20.496000,173.925000,20.644000,174.669000,20.940000C175.421000,21.236000,176.061000,21.656000,176.589000,22.200000C177.125000,22.744000,177.537000,23.408000,177.825000,24.192000C178.113000,24.976000,178.257000,25.852000,178.257000,26.820000C178.257000,27.796000,178.113000,28.676000,177.825000,29.460000C177.537000,30.244000,177.125000,30.912000,176.589000,31.464000C176.061000,32.016000,175.421000,32.440000,174.669000,32.736000C173.925000,33.032000,173.097000,33.180000,172.185000,33.180000C171.265000,33.180000,170.429000,33.032000,169.677000,32.736000C168.925000,32.440000,168.281000,32.016000,167.745000,31.464000C167.217000,30.912000,166.805000,30.244000,166.509000,29.460000C166.221000,28.676000,166.077000,27.796000,166.077000,26.820000C166.077000,25.852000,166.221000,24.976000,166.509000,24.192000C166.805000,23.408000,167.217000,22.744000,167.745000,22.200000C168.281000,21.656000,168.925000,21.236000,169.677000,20.940000C170.429000,20.644000,171.265000,20.496000,172.185000,20.496000ZM172.185000,30.900000C173.209000,30.900000,173.965000,30.556000,174.453000,29.868000C174.949000,29.180000,175.197000,28.172000,175.197000,26.844000C175.197000,25.516000,174.949000,24.504000,174.453000,23.808000C173.965000,23.112000,173.209000,22.764000,172.185000,22.764000C171.145000,22.764000,170.373000,23.116000,169.869000,23.820000C169.373000,24.516000,169.125000,25.524000,169.125000,26.844000C169.125000,28.164000,169.373000,29.172000,169.869000,29.868000C170.373000,30.556000,171.145000,30.900000,172.185000,30.900000ZM183.591000,20.688000L183.591000,33.420000C183.591000,33.956000,183.519000,34.460000,183.375000,34.932000C183.239000,35.404000,183.015000,35.816000,182.703000,36.168000C182.399000,36.528000,181.995000,36.808000,181.491000,37.008000C180.995000,37.216000,180.387000,37.320000,179.667000,37.320000C179.387000,37.320000,179.127000,37.300000,178.887000,37.260000C178.647000,37.228000,178.399000,37.172000,178.143000,37.092000L178.251000,35.496000C178.275000,35.336000,178.339000,35.232000,178.443000,35.184000C178.547000,35.144000,178.747000,35.124000,179.043000,35.124000C179.339000,35.124000,179.587000,35.092000,179.787000,35.028000C179.995000,34.972000,180.159000,34.876000,180.279000,34.740000C180.399000,34.612000,180.483000,34.440000,180.531000,34.224000C180.587000,34.008000,180.615000,33.740000,180.615000,33.420000L180.615000,20.688000L183.591000,20.688000ZM183.999000,17.100000C183.999000,17.356000,183.947000,17.596000,183.843000,17.820000C183.739000,18.044000,183.599000,18.240000,183.423000,18.408000C183.255000,18.576000,183.051000,18.712000,182.811000,18.816000C182.579000,18.912000,182.331000,18.960000,182.067000,18.960000C181.811000,18.960000,181.571000,18.912000,181.347000,18.816000C181.123000,18.712000,180.927000,18.576000,180.759000,18.408000C180.591000,18.240000,180.455000,18.044000,180.351000,17.820000C180.255000,17.596000,180.207000,17.356000,180.207000,17.100000C180.207000,16.836000,180.255000,16.588000,180.351000,16.356000C180.455000,16.124000,180.591000,15.924000,180.759000,15.756000C180.927000,15.588000,181.123000,15.456000,181.347000,15.360000C181.571000,15.256000,181.811000,15.204000,182.067000,15.204000C182.331000,15.204000,182.579000,15.256000,182.811000,15.360000C183.051000,15.456000,183.255000,15.588000,183.423000,15.756000C183.599000,15.924000,183.739000,16.124000,183.843000,16.356000C183.947000,16.588000,183.999000,16.836000,183.999000,17.100000ZM194.544000,25.428000C194.544000,25.044000,194.488000,24.684000,194.376000,24.348000C194.272000,24.004000,194.112000,23.704000,193.896000,23.448000C193.680000,23.192000,193.404000,22.992000,193.068000,22.848000C192.740000,22.696000,192.356000,22.620000,191.916000,22.620000C191.060000,22.620000,190.384000,22.864000,189.888000,23.352000C189.400000,23.840000,189.088000,24.532000,188.952000,25.428000L194.544000,25.428000ZM188.892000,27.216000C188.940000,27.848000,189.052000,28.396000,189.228000,28.860000C189.404000,29.316000,189.636000,29.696000,189.924000,30C190.212000,30.296000,190.552000,30.520000,190.944000,30.672000C191.344000,30.816000,191.784000,30.888000,192.264000,30.888000C192.744000,30.888000,193.156000,30.832000,193.500000,30.720000C193.852000,30.608000,194.156000,30.484000,194.412000,30.348000C194.676000,30.212000,194.904000,30.088000,195.096000,29.976000C195.296000,29.864000,195.488000,29.808000,195.672000,29.808000C195.920000,29.808000,196.104000,29.900000,196.224000,30.084000L197.076000,31.164000C196.748000,31.548000,196.380000,31.872000,195.972000,32.136000C195.564000,32.392000,195.136000,32.600000,194.688000,32.760000C194.248000,32.912000,193.796000,33.020000,193.332000,33.084000C192.876000,33.148000,192.432000,33.180000,192,33.180000C191.144000,33.180000,190.348000,33.040000,189.612000,32.760000C188.876000,32.472000,188.236000,32.052000,187.692000,31.500000C187.148000,30.940000,186.720000,30.252000,186.408000,29.436000C186.096000,28.612000,185.940000,27.660000,185.940000,26.580000C185.940000,25.740000,186.076000,24.952000,186.348000,24.216000C186.620000,23.472000,187.008000,22.828000,187.512000,22.284000C188.024000,21.732000,188.644000,21.296000,189.372000,20.976000C190.108000,20.656000,190.936000,20.496000,191.856000,20.496000C192.632000,20.496000,193.348000,20.620000,194.004000,20.868000C194.660000,21.116000,195.224000,21.480000,195.696000,21.960000C196.168000,22.432000,196.536000,23.016000,196.800000,23.712000C197.072000,24.400000,197.208000,25.188000,197.208000,26.076000C197.208000,26.524000,197.160000,26.828000,197.064000,26.988000C196.968000,27.140000,196.784000,27.216000,196.512000,27.216000L188.892000,27.216000ZM208.253000,23.292000C208.165000,23.404000,208.077000,23.492000,207.989000,23.556000C207.909000,23.620000,207.789000,23.652000,207.629000,23.652000C207.477000,23.652000,207.329000,23.608000,207.185000,23.520000C207.041000,23.424000,206.869000,23.320000,206.669000,23.208000C206.469000,23.088000,206.229000,22.984000,205.949000,22.896000C205.677000,22.800000,205.337000,22.752000,204.929000,22.752000C204.409000,22.752000,203.953000,22.848000,203.561000,23.040000C203.169000,23.224000,202.841000,23.492000,202.577000,23.844000C202.321000,24.196000,202.129000,24.624000,202.001000,25.128000C201.873000,25.624000,201.809000,26.188000,201.809000,26.820000C201.809000,27.476000,201.877000,28.060000,202.013000,28.572000C202.157000,29.084000,202.361000,29.516000,202.625000,29.868000C202.889000,30.212000,203.209000,30.476000,203.585000,30.660000C203.961000,30.836000,204.385000,30.924000,204.857000,30.924000C205.329000,30.924000,205.709000,30.868000,205.997000,30.756000C206.293000,30.636000,206.541000,30.508000,206.741000,30.372000C206.941000,30.228000,207.113000,30.100000,207.257000,29.988000C207.409000,29.868000,207.577000,29.808000,207.761000,29.808000C208.001000,29.808000,208.181000,29.900000,208.301000,30.084000L209.153000,31.164000C208.825000,31.548000,208.469000,31.872000,208.085000,32.136000C207.701000,32.392000,207.301000,32.600000,206.885000,32.760000C206.477000,32.912000,206.053000,33.020000,205.613000,33.084000C205.181000,33.148000,204.749000,33.180000,204.317000,33.180000C203.557000,33.180000,202.841000,33.040000,202.169000,32.760000C201.497000,32.472000,200.909000,32.056000,200.405000,31.512000C199.901000,30.968000,199.501000,30.304000,199.205000,29.520000C198.917000,28.728000,198.773000,27.828000,198.773000,26.820000C198.773000,25.916000,198.901000,25.080000,199.157000,24.312000C199.421000,23.536000,199.805000,22.868000,200.309000,22.308000C200.813000,21.740000,201.437000,21.296000,202.181000,20.976000C202.925000,20.656000,203.781000,20.496000,204.749000,20.496000C205.669000,20.496000,206.473000,20.644000,207.161000,20.940000C207.857000,21.236000,208.481000,21.660000,209.033000,22.212000L208.253000,23.292000ZM215.115000,33.192000C214.043000,33.192000,213.219000,32.892000,212.643000,32.292000C212.075000,31.684000,211.791000,30.848000,211.791000,29.784000L211.791000,22.908000L210.531000,22.908000C210.371000,22.908000,210.235000,22.856000,210.123000,22.752000C210.011000,22.648000,209.955000,22.492000,209.955000,22.284000L209.955000,21.108000L211.935000,20.784000L212.559000,17.424000C212.599000,17.264000,212.675000,17.140000,212.787000,17.052000C212.899000,16.964000,213.043000,16.920000,213.219000,16.920000L214.755000,16.920000L214.755000,20.796000L218.043000,20.796000L218.043000,22.908000L214.755000,22.908000L214.755000,29.580000C214.755000,29.964000,214.847000,30.264000,215.031000,30.480000C215.223000,30.696000,215.483000,30.804000,215.811000,30.804000C215.995000,30.804000,216.147000,30.784000,216.267000,30.744000C216.395000,30.696000,216.503000,30.648000,216.591000,30.600000C216.687000,30.552000,216.771000,30.508000,216.843000,30.468000C216.915000,30.420000,216.987000,30.396000,217.059000,30.396000C217.147000,30.396000,217.219000,30.420000,217.275000,30.468000C217.331000,30.508000,217.391000,30.572000,217.455000,30.660000L218.343000,32.100000C217.911000,32.460000,217.415000,32.732000,216.855000,32.916000C216.295000,33.100000,215.715000,33.192000,215.115000,33.192000Z" opacity="0" fill="rgb(0,0,0)" stroke="none" stroke-width="1" style="animation:ep5i7cbb4m4l11_c_o 15000ms linear infinite normal forwards"/>
            </g>
            <g opacity="0" style="animation:ep5i7cbb4m4l12_c_o 15000ms linear infinite normal forwards">
                <line id="ep5i7cbb4m4l13" x1="73" y1="48.500000" x2="286" y2="48.500000" fill="none" stroke="rgb(170,178,189)" stroke-width="5"/>
                <line id="ep5i7cbb4m4l14" x1="73" y1="58.500000" x2="286" y2="58.500000" fill="none" stroke="rgb(170,178,189)" stroke-width="5"/>
                <line id="ep5i7cbb4m4l15" x1="73" y1="68.500000" x2="286" y2="68.500000" fill="none" stroke="rgb(170,178,189)" stroke-width="5"/>
            </g>
            <g id="ep5i7cbb4m4l16" style="mix-blend-mode:lighten">
                <g transform="translate(0,0)" style="animation:ep5i7cbb4m4l17_to__to 15000ms linear infinite normal forwards">
                    <path style="mix-blend-mode:difference;animation:ep5i7cbb4m4l17_c_o 15000ms linear infinite normal forwards" d="M107,60.813200C107,69.925900,139.771000,74.813200,110.500000,74.813200C81.228900,74.813200,57.500000,67.425900,57.500000,58.313200C57.500000,49.200500,81.228900,41.813200,110.500000,41.813200C139.771000,41.813200,107,51.700500,107,60.813200Z" transform="translate(0,0)" opacity="0" fill="rgb(196,196,196)" stroke="none" stroke-width="1"/>
                </g>
            </g>
        </g>
    </g>
</svg>
